<?plantuml 1.2026.2?><svg xmlns="http://www.w3.org/2000/svg" xmlns:xlink="http://www.w3.org/1999/xlink" contentStyleType="text/css" data-diagram-type="DESCRIPTION" height="696px" preserveAspectRatio="none" style="width:1472px;height:696px;background:#FFFFFF;" version="1.1" viewBox="0 0 1472 696" width="1472px" zoomAndPan="magnify"><title>Data Model Map</title><defs/><g><g class="title" data-source-line="7"><text fill="#000000" font-family="Arial" font-size="14" font-weight="bold" lengthAdjust="spacing" textLength="114.4216" x="672.0723" y="24.9659">Data Model Map</text></g><!--cluster Modelo base--><g class="cluster" data-qualified-name="Modelo base" data-source-line="9" id="ent0002"><path d="M8.5,447.6699 L97.6297,447.6699 A3.75,3.75 0 0 1 100.1297,450.1699 L107.1297,472.7378 L791.5,472.7378 A2.5,2.5 0 0 1 794,475.2378 L794,687.1699 A2.5,2.5 0 0 1 791.5,689.6699 L8.5,689.6699 A2.5,2.5 0 0 1 6,687.1699 L6,450.1699 A2.5,2.5 0 0 1 8.5,447.6699" fill="none" style="stroke:#000000;stroke-width:1.5;"/><line style="stroke:#000000;stroke-width:1.5;" x1="6" x2="107.1297" y1="472.7378" y2="472.7378"/><text fill="#000000" font-family="Arial" font-size="14" font-weight="bold" lengthAdjust="spacing" textLength="88.1297" x="10" y="464.6358">Modelo base</text></g><!--cluster Cotizacion time--><g class="cluster" data-qualified-name="Cotizacion time" data-source-line="17" id="ent0008"><path d="M637.5,255.6699 L747.0556,255.6699 A3.75,3.75 0 0 1 749.5556,258.1699 L756.5556,280.7378 L1424.5,280.7378 A2.5,2.5 0 0 1 1427,283.2378 L1427,421.1699 A2.5,2.5 0 0 1 1424.5,423.6699 L637.5,423.6699 A2.5,2.5 0 0 1 635,421.1699 L635,258.1699 A2.5,2.5 0 0 1 637.5,255.6699" fill="none" style="stroke:#000000;stroke-width:1.5;"/><line style="stroke:#000000;stroke-width:1.5;" x1="635" x2="756.5556" y1="280.7378" y2="280.7378"/><text fill="#000000" font-family="Arial" font-size="14" font-weight="bold" lengthAdjust="spacing" textLength="108.5556" x="639" y="272.6358">Cotizacion time</text></g><!--cluster Operaciones logicas--><g class="cluster" data-qualified-name="Operaciones logicas" data-source-line="24" id="ent0013"><path d="M1292,46.6699 L1432.9715,46.6699 A3.75,3.75 0 0 1 1435.4715,49.1699 L1442.4715,71.7378 L1442,71.7378 A2.5,2.5 0 0 1 1444.5,74.2378 L1444.5,212.1699 A2.5,2.5 0 0 1 1442,214.6699 L1292,214.6699 A2.5,2.5 0 0 1 1289.5,212.1699 L1289.5,49.1699 A2.5,2.5 0 0 1 1292,46.6699" fill="none" style="stroke:#000000;stroke-width:1.5;"/><line style="stroke:#000000;stroke-width:1.5;" x1="1289.5" x2="1442.4715" y1="71.7378" y2="71.7378"/><text fill="#000000" font-family="Arial" font-size="14" font-weight="bold" lengthAdjust="spacing" textLength="139.9715" x="1293.5" y="63.6358">Operaciones logicas</text></g><!--entity CategoriaCatalogo--><g class="entity" data-qualified-name="Modelo base.CategoriaCatalogo" data-source-line="10" id="ent0003"><rect fill="#F1F1F1" height="39.0679" rx="2.5" ry="2.5" style="stroke:#181818;stroke-width:0.5;" width="142.7516" x="346" y="486.1699"/><text fill="#000000" font-family="Arial" font-size="14" lengthAdjust="spacing" textLength="122.7516" x="356" y="511.1358">CategoriaCatalogo</text></g><!--entity ItemCatalogo--><g class="entity" data-qualified-name="Modelo base.ItemCatalogo" data-source-line="11" id="ent0004"><rect fill="#F1F1F1" height="39.0679" rx="2.5" ry="2.5" style="stroke:#181818;stroke-width:0.5;" width="109.5577" x="668" y="486.1699"/><text fill="#000000" font-family="Arial" font-size="14" lengthAdjust="spacing" textLength="89.5577" x="678" y="511.1358">ItemCatalogo</text></g><!--entity PropiedadBase--><g class="entity" data-qualified-name="Modelo base.PropiedadBase" data-source-line="12" id="ent0005"><rect fill="#F1F1F1" height="39.0679" rx="2.5" ry="2.5" style="stroke:#181818;stroke-width:0.5;" width="119.4696" x="44.5" y="486.1699"/><text fill="#000000" font-family="Arial" font-size="14" lengthAdjust="spacing" textLength="99.4696" x="54.5" y="511.1358">PropiedadBase</text></g><!--entity Area--><g class="entity" data-qualified-name="Modelo base.Area" data-source-line="13" id="ent0006"><rect fill="#F1F1F1" height="39.0679" rx="2.5" ry="2.5" style="stroke:#181818;stroke-width:0.5;" width="50.4779" x="79" y="560.1699"/><text fill="#000000" font-family="Arial" font-size="14" lengthAdjust="spacing" textLength="30.4779" x="89" y="585.1358">Area</text></g><!--entity CategoriaOperacional--><g class="entity" data-qualified-name="Modelo base.CategoriaOperacional" data-source-line="14" id="ent0007"><rect fill="#F1F1F1" height="39.0679" rx="2.5" ry="2.5" style="stroke:#181818;stroke-width:0.5;" width="163.9755" x="22" y="634.1699"/><text fill="#000000" font-family="Arial" font-size="14" lengthAdjust="spacing" textLength="143.9755" x="32" y="659.1358">CategoriaOperacional</text></g><!--entity Cotizacion--><g class="entity" data-qualified-name="Cotizacion time.Cotizacion" data-source-line="18" id="ent0009"><rect fill="#F1F1F1" height="39.0679" rx="2.5" ry="2.5" style="stroke:#181818;stroke-width:0.5;" width="87.8717" x="1323" y="353.1699"/><text fill="#000000" font-family="Arial" font-size="14" lengthAdjust="spacing" textLength="67.8717" x="1333" y="378.1358">Cotizacion</text></g><!--entity LineaCotizada--><g class="entity" data-qualified-name="Cotizacion time.LineaCotizada" data-source-line="19" id="ent0010"><rect fill="#F1F1F1" height="39.0679" rx="2.5" ry="2.5" style="stroke:#181818;stroke-width:0.5;" width="112.2316" x="1006.5" y="368.1699"/><text fill="#000000" font-family="Arial" font-size="14" lengthAdjust="spacing" textLength="92.2316" x="1016.5" y="393.1358">LineaCotizada</text></g><!--entity PropiedadRuntime--><g class="entity" data-qualified-name="Cotizacion time.PropiedadRuntime" data-source-line="20" id="ent0011"><rect fill="#F1F1F1" height="39.0679" rx="2.5" ry="2.5" style="stroke:#181818;stroke-width:0.5;" width="143.5775" x="651" y="324.1699"/><text fill="#000000" font-family="Arial" font-size="14" lengthAdjust="spacing" textLength="123.5775" x="661" y="349.1358">PropiedadRuntime</text></g><!--entity PropiedadEfectiva--><g class="entity" data-qualified-name="Cotizacion time.PropiedadEfectiva" data-source-line="21" id="ent0012"><rect fill="#F1F1F1" height="39.0679" rx="2.5" ry="2.5" style="stroke:#181818;stroke-width:0.5;" width="138.7616" x="993" y="294.1699"/><text fill="#000000" font-family="Arial" font-size="14" lengthAdjust="spacing" textLength="118.7616" x="1003" y="319.1358">PropiedadEfectiva</text></g><!--entity Pricing--><g class="entity" data-qualified-name="Operaciones logicas.Pricing" data-source-line="25" id="ent0014"><rect fill="#F1F1F1" height="39.0679" rx="2.5" ry="2.5" style="stroke:#181818;stroke-width:0.5;" width="65.4578" x="1334.5" y="85.1699"/><text fill="#000000" font-family="Arial" font-size="14" lengthAdjust="spacing" textLength="45.4578" x="1344.5" y="110.1358">Pricing</text></g><!--entity Ruling--><g class="entity" data-qualified-name="Operaciones logicas.Ruling" data-source-line="26" id="ent0015"><rect fill="#F1F1F1" height="39.0679" rx="2.5" ry="2.5" style="stroke:#181818;stroke-width:0.5;" width="61.8458" x="1336" y="159.1699"/><text fill="#000000" font-family="Arial" font-size="14" lengthAdjust="spacing" textLength="41.8458" x="1346" y="184.1358">Ruling</text></g><g class="entity" data-qualified-name="GMN30" data-source-line="45" id="ent0031"><path d="M628,211.6699 L628,239.3759 L818.4811,239.3759 L818.4811,221.6699 L808.4811,211.6699 L628,211.6699" fill="#FEFFDD" style="stroke:#181818;stroke-width:0.5;"/><path d="M808.4811,211.6699 L808.4811,221.6699 L818.4811,221.6699 L808.4811,211.6699" fill="#FEFFDD" style="stroke:#181818;stroke-width:1;"/><text fill="#000000" font-family="Arial" font-size="13" lengthAdjust="spacing" textLength="169.4811" x="634" y="230.5669">Contenedor estructural real</text></g><g class="entity" data-qualified-name="GMN33" data-source-line="49" id="ent0034"><path d="M1010.5,598.1699 L1010.5,599.2699 L778.23,524.1499 L1010.5,607.2699 L1010.5,643.5819 A0,0 0 0 0 1010.5,643.5819 L1114.0501,643.5819 A0,0 0 0 0 1114.0501,643.5819 L1114.0501,608.1699 L1104.0501,598.1699 L1010.5,598.1699 A0,0 0 0 0 1010.5,598.1699" fill="#FEFFDD" style="stroke:#181818;stroke-width:0.5;"/><path d="M1104.0501,598.1699 L1104.0501,608.1699 L1114.0501,608.1699 L1104.0501,598.1699" fill="#FEFFDD" style="stroke:#181818;stroke-width:0.5;"/><text fill="#000000" font-family="Arial" font-size="13" lengthAdjust="spacing" textLength="82.5501" x="1016.5" y="617.0669">Entidad tonta</text><text fill="#000000" font-family="Arial" font-size="13" lengthAdjust="spacing" textLength="57.0961" x="1016.5" y="634.7729">sin logica</text></g><g class="entity" data-qualified-name="GMN36" data-source-line="54" id="ent0037"><path d="M1268,439.6699 L1268,467.3759 A0,0 0 0 0 1268,467.3759 L1465.5662,467.3759 A0,0 0 0 0 1465.5662,467.3759 L1465.5662,449.6699 L1455.5662,439.6699 L1305.81,439.6699 L1118.63,399.6999 L1297.81,439.6699 L1268,439.6699 A0,0 0 0 0 1268,439.6699" fill="#FEFFDD" style="stroke:#181818;stroke-width:0.5;"/><path d="M1455.5662,439.6699 L1455.5662,449.6699 L1465.5662,449.6699 L1455.5662,439.6699" fill="#FEFFDD" style="stroke:#181818;stroke-width:0.5;"/><text fill="#000000" font-family="Arial" font-size="13" lengthAdjust="spacing" textLength="176.5662" x="1274" y="458.5669">Solo contiene item + runtime</text></g><!--link Area to CategoriaCatalogo--><g class="link" data-entity-1="ent0006" data-entity-2="ent0003" data-link-type="dependency" data-source-line="29" id="lnk16"><path d="M129.13,574.6499 C168.41,566.3999 248.57,549.2299 316,532.6699 C325.65,530.2999 329.9866,529.2234 339.9666,526.6034" fill="none" id="Area-to-CategoriaCatalogo" style="stroke:#666666;stroke-width:1;"/><polygon fill="#666666" points="345.77,525.0799,336.0493,523.4963,340.9339,526.3495,338.0807,531.2341,345.77,525.0799" style="stroke:#666666;stroke-width:1;"/><text fill="#000000" font-family="Arial" font-size="13" lengthAdjust="spacing" textLength="98.8001" x="217" y="528.5669">encapsulado_en</text></g><!--link CategoriaOperacional to CategoriaCatalogo--><g class="link" data-entity-1="ent0007" data-entity-2="ent0003" data-link-type="dependency" data-source-line="30" id="lnk17"><path d="M181.14,634.0799 C222.37,621.9199 273.44,604.2699 316,581.6699 C345.37,566.0799 370.7496,546.1323 390.2196,529.3123" fill="none" id="CategoriaOperacional-to-CategoriaCatalogo" style="stroke:#666666;stroke-width:1;"/><polygon fill="#666666" points="394.76,525.3899,385.3345,528.2466,390.9764,528.6586,390.5644,534.3004,394.76,525.3899" style="stroke:#666666;stroke-width:1;"/><text fill="#000000" font-family="Arial" font-size="13" lengthAdjust="spacing" textLength="98.8001" x="217" y="577.5669">encapsulado_en</text></g><!--link PropiedadBase to CategoriaCatalogo--><g class="link" data-entity-1="ent0005" data-entity-2="ent0003" data-link-type="dependency" data-source-line="31" id="lnk18"><path d="M163.59,505.6699 C215.32,505.6699 284.85,505.6699 339.89,505.6699" fill="none" id="PropiedadBase-to-CategoriaCatalogo" style="stroke:#666666;stroke-width:1;"/><polygon fill="#666666" points="345.89,505.6699,336.89,501.6699,340.89,505.6699,336.89,509.6699,345.89,505.6699" style="stroke:#666666;stroke-width:1;"/><text fill="#000000" font-family="Arial" font-size="13" lengthAdjust="spacing" textLength="98.2281" x="217" y="501.5669">encapsulada_en</text></g><!--link CategoriaCatalogo to ItemCatalogo--><g class="link" data-entity-1="ent0003" data-entity-2="ent0004" data-link-type="dependency" data-source-line="32" id="lnk19"><path d="M489.27,505.6699 C543.75,505.6699 611.91,505.6699 661.75,505.6699" fill="none" id="CategoriaCatalogo-to-ItemCatalogo" style="stroke:#666666;stroke-width:1;"/><polygon fill="#666666" points="667.75,505.6699,658.75,501.6699,662.75,505.6699,658.75,509.6699,667.75,505.6699" style="stroke:#666666;stroke-width:1;"/><text fill="#000000" font-family="Arial" font-size="13" lengthAdjust="spacing" textLength="77.5451" x="520" y="501.5669">hereda_todo</text></g><!--link ItemCatalogo to LineaCotizada--><g class="link" data-entity-1="ent0004" data-entity-2="ent0010" data-link-type="dependency" data-source-line="33" id="lnk20"><path d="M778.05,515.5099 C828.41,522.0499 904.32,525.0799 963,497.6699 C1003.88,478.5799 1032.0477,438.8996 1047.5677,412.7496" fill="none" id="ItemCatalogo-to-LineaCotizada" style="stroke:#666666;stroke-width:1;"/><polygon fill="#666666" points="1050.63,407.5899,1042.5968,413.2879,1048.0781,411.8896,1049.4764,417.371,1050.63,407.5899" style="stroke:#666666;stroke-width:1;"/><text fill="#000000" font-family="Arial" font-size="13" lengthAdjust="spacing" textLength="113.7501" x="849" y="493.5669">se_instancia_como</text></g><!--link PropiedadRuntime to LineaCotizada--><g class="link" data-entity-1="ent0011" data-entity-2="ent0010" data-link-type="dependency" data-source-line="34" id="lnk21"><path d="M795.16,352.9499 C858.11,361.1499 942.7203,372.1844 1000.3403,379.6944" fill="none" id="PropiedadRuntime-to-LineaCotizada" style="stroke:#666666;stroke-width:1;"/><polygon fill="#666666" points="1006.29,380.4699,997.8825,375.3403,1001.3319,379.8237,996.8485,383.2732,1006.29,380.4699" style="stroke:#666666;stroke-width:1;"/><text fill="#000000" font-family="Arial" font-size="13" lengthAdjust="spacing" textLength="105.9631" x="853" y="356.5669">override_runtime</text></g><!--link CategoriaCatalogo to PropiedadEfectiva--><g class="link" data-entity-1="ent0003" data-entity-2="ent0012" data-link-type="dependency" data-source-line="35" id="lnk22"><path d="M459.99,525.3299 C562.73,570.8199 830.29,669.1499 963,528.6699 C1018.1,470.3499 946.3,415.9099 993,350.6699 C997.96,343.7499 999.6054,341.2844 1006.8354,336.5344" fill="none" id="CategoriaCatalogo-to-PropiedadEfectiva" style="stroke:#666666;stroke-width:1;"/><polygon fill="#666666" points="1011.85,333.2399,1002.1318,334.8386,1007.6712,335.9853,1006.5244,341.5247,1011.85,333.2399" style="stroke:#666666;stroke-width:1;"/><text fill="#000000" font-family="Arial" font-size="13" lengthAdjust="spacing" textLength="112.6061" x="667" y="578.5669">categoria_defaults</text></g><!--link ItemCatalogo to PropiedadEfectiva--><g class="link" data-entity-1="ent0004" data-entity-2="ent0012" data-link-type="dependency" data-source-line="36" id="lnk23"><path d="M778.23,492.5999 C830.48,477.7599 909.3,449.2199 963,401.6699 C982.69,384.2399 974.07,368.9199 993,350.6699 C999.91,344.0099 1003.066,341.2208 1011.526,336.2908" fill="none" id="ItemCatalogo-to-PropiedadEfectiva" style="stroke:#666666;stroke-width:1;"/><polygon fill="#666666" points="1016.71,333.2699,1006.92,334.3453,1012.39,335.7873,1010.948,341.2573,1016.71,333.2699" style="stroke:#666666;stroke-width:1;"/><text fill="#000000" font-family="Arial" font-size="13" lengthAdjust="spacing" textLength="82.7061" x="864.5" y="397.5669">item_defaults</text></g><!--link PropiedadRuntime to PropiedadEfectiva--><g class="link" data-entity-1="ent0011" data-entity-2="ent0012" data-link-type="dependency" data-source-line="37" id="lnk24"><path d="M795.16,337.3399 C853.37,332.1699 929.2136,325.4316 986.7636,320.3116" fill="none" id="PropiedadRuntime-to-PropiedadEfectiva" style="stroke:#666666;stroke-width:1;"/><polygon fill="#666666" points="992.74,319.7799,983.4209,316.5932,987.7597,320.223,984.1299,324.5617,992.74,319.7799" style="stroke:#666666;stroke-width:1;"/><text fill="#000000" font-family="Arial" font-size="13" lengthAdjust="spacing" textLength="93.5871" x="859" y="318.5669">runtime_values</text></g><!--link PropiedadEfectiva to Pricing--><g class="link" data-entity-1="ent0012" data-entity-2="ent0014" data-link-type="dependency" data-source-line="38" id="lnk25"><path d="M1082.11,294.1599 C1116.14,259.3999 1191.96,186.2399 1268,141.6699 C1288.87,129.4399 1308.7827,121.7501 1328.6027,115.4401" fill="none" id="PropiedadEfectiva-to-Pricing" style="stroke:#666666;stroke-width:1;"/><polygon fill="#666666" points="1334.32,113.6199,1324.5307,112.5387,1329.5556,115.1367,1326.9576,120.1617,1334.32,113.6199" style="stroke:#666666;stroke-width:1;"/><text fill="#000000" font-family="Arial" font-size="13" lengthAdjust="spacing" textLength="32.11" x="1184" y="157.5669">input</text></g><!--link PropiedadEfectiva to Ruling--><g class="link" data-entity-1="ent0012" data-entity-2="ent0015" data-link-type="dependency" data-source-line="39" id="lnk26"><path d="M1132.4,305.7199 C1165.43,300.1599 1204.91,290.9099 1238,275.6699 C1280.55,256.0799 1317.9985,224.5289 1341.7285,202.3289" fill="none" id="PropiedadEfectiva-to-Ruling" style="stroke:#666666;stroke-width:1;"/><polygon fill="#666666" points="1346.11,198.2299,1336.805,201.4574,1342.4587,201.6458,1342.2704,207.2995,1346.11,198.2299" style="stroke:#666666;stroke-width:1;"/><text fill="#000000" font-family="Arial" font-size="13" lengthAdjust="spacing" textLength="32.11" x="1184" y="271.5669">input</text></g><!--link LineaCotizada to Cotizacion--><g class="link" data-entity-1="ent0010" data-entity-2="ent0009" data-link-type="dependency" data-source-line="40" id="lnk27"><path d="M1118.63,384.9399 C1177.42,382.0199 1263.3074,377.768 1316.9874,375.098" fill="none" id="LineaCotizada-to-Cotizacion" style="stroke:#666666;stroke-width:1;"/><polygon fill="#666666" points="1322.98,374.7999,1313.7924,371.2519,1317.9862,375.0483,1314.1898,379.2421,1322.98,374.7999" style="stroke:#666666;stroke-width:1;"/><text fill="#000000" font-family="Arial" font-size="13" lengthAdjust="spacing" textLength="74.724" x="1163" y="375.5669">pertenece_a</text></g><!--link CategoriaCatalogo to Pricing--><g class="link" data-entity-1="ent0003" data-entity-2="ent0014" data-link-type="dependency" data-source-line="41" id="lnk28"><path d="M421.08,486.0999 C428.39,437.0099 453.19,306.5599 519,222.6699 C554.46,177.4699 572.77,170.5999 627,151.6699 C887.04,60.8799 1223.4666,88.4779 1328.2266,100.1079" fill="none" id="CategoriaCatalogo-to-Pricing" style="stroke:#666666;stroke-width:1;"/><polygon fill="#666666" points="1334.19,100.7699,1325.6863,95.8013,1329.2205,100.2182,1324.8036,103.7524,1334.19,100.7699" style="stroke:#666666;stroke-width:1;"/><text fill="#000000" font-family="Arial" font-size="13" lengthAdjust="spacing" textLength="105.6381" x="853" y="87.5669">define_operacion</text></g><!--link CategoriaCatalogo to Ruling--><g class="link" data-entity-1="ent0003" data-entity-2="ent0015" data-link-type="dependency" data-source-line="42" id="lnk29"><path d="M423.87,485.9099 C441.21,426.7399 501.94,251.5099 627,193.6699 C755.85,134.0799 1207.9894,165.8075 1329.9894,175.6475" fill="none" id="CategoriaCatalogo-to-Ruling" style="stroke:#666666;stroke-width:1;"/><polygon fill="#666666" points="1335.97,176.1299,1327.3207,171.4193,1330.9862,175.7279,1326.6776,179.3934,1335.97,176.1299" style="stroke:#666666;stroke-width:1;"/><text fill="#000000" font-family="Arial" font-size="13" lengthAdjust="spacing" textLength="105.6381" x="853" y="154.5669">define_operacion</text></g><!--link CategoriaCatalogo to GMN30--><g class="link" data-entity-1="ent0003" data-entity-2="ent0031" data-link-type="association" data-source-line="45" id="lnk32"><path d="M432.89,485.9599 C464.42,443.7699 543.45,343.2399 627,277.6699 C646.38,262.4599 670.8,249.1999 690.03,239.8799" fill="none" id="CategoriaCatalogo-GMN30" style="stroke:#666666;stroke-width:1;stroke-dasharray:7,7;"/></g><?plantuml-src bLJ1Rjim3BthAuJkEFIwGmy3kgm31gnTqHw7mE0anX4gYuP4fzY6_VjesR6Zn1usdmpglSSdac9wSQ6528t-3kQbZjG5ko5FKR_k7QDAqxcXfgM0WP_vXqSTqJ24sfz2RcEaru7zvbt-JWujxg3p_8a2Fq230dRWbSSTQoOTNRrdRLqlwoWenOuboqTWqFTaqUjxQ9LgnIJKgAzoZCHqmYlzIsdzRGECDOce_82dchPzz3DZKmGU8xKEBTWFGisHsuYmBHI-jXZ1Y0tmM_Nx9Ek6sFtC9vfTCsMUebdcYmi8Gyn2cVEf2psl3Dxj-ZiVe4mrUS2anRmpaCPqZz4P5-eiyjJv_2lCuHxw-lhzKYtqZSPWe4sT1qiL1hLytV_WbvNy9oAKYMTG9XUz4juUeyXNJ9RKsM76buKMGiBAXIHZQHnKCg-aBak_GgK3nkWiLd70hRkyx9lGpH5SZMEU5XqlSkMPDIUq5SUBrD5iTG3VuIbt1etaOMJwRA7jU1qv3jGCFAlKqELvu0KeqyCOq605VwlQv42kAfeL7QTkdJIRkU2eG8pZrg3TuklVoAOHNrQs4IQEdU4kWfV59Mi7WzMzmeLEkI_kfBnI8rbGWK4b5yQdkCu_U_pFiWnbSugCECcTrc-FNPj4_W00?></g></svg>